<svg width="83" height="121" viewBox="0 0 83 121" fill="none" xmlns="http://www.w3.org/2000/svg">
<path d="M41.57 32.0046V31.6714H41.565L41.8585 0L13.8582 43.157L13.0125 44.4653L13.7338 44.5846L40.7443 49.0963L41.1671 49.166L41.6496 49.0317L68.0631 41.5453L41.57 32.0046ZM28.2787 22.4142L40.3811 32.1787L14.7486 43.2665L28.2787 22.4142ZM40.7443 48.2806L15.0968 43.9977L40.7492 32.905V48.2806H40.7443ZM40.7592 31.4475L28.7214 21.7327L41.0278 2.76571L40.7592 31.4475ZM41.5501 48.2209L41.57 32.8602L65.4267 41.4558L41.5501 48.2209Z" fill="#3441C0"/>
<path d="M65.4268 41.4558L41.5502 48.2208L41.5701 32.8602L65.4268 41.4558Z" fill="#B7FAF4"/>
<path d="M40.7494 32.9049L40.7444 48.2805L15.0969 43.9976L40.7494 32.9049Z" fill="#C7B1F4"/>
<path d="M40.3812 32.1788L14.7486 43.2665L28.2787 22.4142L40.3812 32.1788Z" fill="#86A8EF"/>
<path d="M41.0278 2.76569L40.7592 31.4475L28.7214 21.7327L41.0278 2.76569Z" fill="#EDCABF"/>
<path d="M69.5306 44.4205L41.2566 53.0559L40.804 53.1951V54.4039L40.7393 85.8813L57.1197 62.1489L57.3286 61.8405L57.5724 61.4873H57.5674L69.5256 44.4205H69.5306ZM41.5501 83.2897L41.6098 54.19L56.4183 61.746L41.5501 83.2897ZM56.871 61.0794L42.2167 53.608L67.6204 45.8481L56.871 61.0794Z" fill="#3441C0"/>
<path d="M56.4184 61.746L41.5502 83.2897L41.6099 54.19L56.4184 61.746Z" fill="#EDCABF"/>
<path d="M67.6203 45.8481L56.8708 61.0794L42.2166 53.608L67.6203 45.8481Z" fill="#C7B1F4"/>
<path d="M5.61623 120.485C5.16555 120.485 4.70496 120.475 4.22951 120.45C3.75406 120.425 3.27366 120.385 2.78335 120.33C2.29305 120.275 1.83246 120.21 1.39663 120.141C0.960802 120.071 0.564595 119.986 0.208009 119.896V117.15C0.673552 117.195 1.20348 117.235 1.79284 117.27C2.38219 117.3 2.99632 117.325 3.63025 117.34C4.26913 117.355 4.87335 117.365 5.44785 117.365C6.02235 117.365 6.54732 117.315 6.97324 117.21C7.39917 117.11 7.73099 116.93 7.96376 116.671C8.19653 116.411 8.3154 116.057 8.3154 115.602V114.968C8.3154 114.454 8.16186 114.055 7.85976 113.785C7.55765 113.511 7.12677 113.376 6.56713 113.376H5.10117C3.45691 113.376 2.194 113.011 1.31739 112.282C0.44078 111.554 0 110.315 0 108.563V107.719C0 106.027 0.480401 104.794 1.44616 104.01C2.40696 103.226 3.78378 102.837 5.56671 102.837C6.20559 102.837 6.83457 102.867 7.46355 102.932C8.09253 102.997 8.69674 103.067 9.28115 103.156C9.86555 103.241 10.3658 103.331 10.7818 103.426V106.172C10.0686 106.127 9.27124 106.077 8.39464 106.032C7.51803 105.987 6.7058 105.962 5.96292 105.962C5.43299 105.962 4.96249 106.012 4.55143 106.117C4.14036 106.217 3.8234 106.411 3.61044 106.691C3.39252 106.971 3.28357 107.37 3.28357 107.889V108.358C3.28357 108.968 3.45195 109.407 3.79863 109.671C4.14036 109.936 4.64553 110.071 5.31413 110.071H7.01286C8.05291 110.071 8.90971 110.261 9.58821 110.645C10.2618 111.029 10.7669 111.559 11.1037 112.228C11.4355 112.902 11.6039 113.665 11.6039 114.529V115.518C11.6039 116.88 11.3513 117.919 10.8462 118.638C10.341 119.357 9.64269 119.846 8.75122 120.106C7.85976 120.365 6.81476 120.495 5.62119 120.495L5.61623 120.485Z" fill="black"/>
<path d="M23.2026 120.495C22.2107 120.495 21.281 120.414 20.4189 120.248C19.5567 120.082 18.8037 119.789 18.1597 119.371C17.5157 118.952 17.0171 118.368 16.6691 117.617C16.3211 116.866 16.1446 115.908 16.1446 114.738V102.837H19.7593V114.713C19.7593 115.363 19.8943 115.873 20.1644 116.256C20.4345 116.639 20.824 116.911 21.3381 117.087C21.8523 117.264 22.4755 117.349 23.2078 117.349C23.9401 117.349 24.5374 117.264 25.0515 117.087C25.5657 116.916 25.9552 116.639 26.2253 116.256C26.4953 115.878 26.6304 115.363 26.6304 114.713V102.837H30.2711V114.738C30.2711 115.908 30.0945 116.866 29.7361 117.617C29.3778 118.368 28.8792 118.952 28.2456 119.371C27.612 119.789 26.8641 120.082 26.0123 120.248C25.1606 120.414 24.2258 120.495 23.2182 120.495H23.2026Z" fill="black"/>
<path d="M35.3165 120.495V102.837H42.4876C43.1753 102.837 43.8132 102.918 44.4112 103.085C45.0042 103.253 45.5275 103.542 45.981 103.958C46.4345 104.374 46.7883 104.943 47.0474 105.678C47.3066 106.409 47.4361 107.348 47.4361 108.495C47.4361 109.306 47.3564 109.997 47.2019 110.57C47.0474 111.143 46.8381 111.61 46.579 111.975C46.3199 112.341 46.0258 112.635 45.7019 112.858C45.373 113.082 45.0391 113.264 44.6953 113.406L47.9295 120.495H44.3913L41.6006 113.954C41.4112 113.954 41.1969 113.954 40.9577 113.944C40.7136 113.934 40.4694 113.934 40.2202 113.934H39.4727C39.2235 113.934 38.9943 113.924 38.7949 113.909V120.495H35.3265H35.3165ZM38.785 111.113H41.8797C42.1936 111.113 42.4727 111.072 42.7219 110.991C42.971 110.91 43.1903 110.773 43.3797 110.575C43.569 110.377 43.7135 110.108 43.8132 109.773C43.9179 109.438 43.9677 109.012 43.9677 108.484C43.9677 107.992 43.9179 107.581 43.8132 107.256C43.7135 106.932 43.569 106.678 43.3797 106.495C43.1903 106.313 42.971 106.186 42.7219 106.115C42.4727 106.044 42.1886 106.008 41.8797 106.008H38.785V111.113Z" fill="black"/>
<path d="M57.3508 120.495C56.2498 120.495 55.3539 120.285 54.6582 119.871C53.9576 119.456 53.4121 118.862 53.0217 118.088C52.6313 117.314 52.3561 116.385 52.2009 115.306C52.0458 114.228 51.9657 113.019 51.9657 111.691C51.9657 110.363 52.0558 109.054 52.2359 107.956C52.4161 106.862 52.7364 105.933 53.2019 105.174C53.6623 104.415 54.3129 103.836 55.1537 103.436C55.9945 103.037 57.0705 102.837 58.3918 102.837C59.1925 102.837 59.9232 102.867 60.5939 102.932C61.2595 102.997 61.8901 103.087 62.4907 103.201C63.0863 103.321 63.6818 103.456 64.2774 103.611V106.288C63.9471 106.243 63.5067 106.193 62.9611 106.148C62.4106 106.103 61.8 106.058 61.1244 106.018C60.4487 105.978 59.7531 105.958 59.0274 105.958C58.0415 105.958 57.2907 106.133 56.7803 106.487C56.2698 106.842 55.9194 107.436 55.7343 108.27C55.5441 109.109 55.454 110.253 55.454 111.711C55.454 112.839 55.504 113.763 55.6091 114.482C55.7092 115.202 55.8794 115.771 56.1146 116.185C56.3499 116.6 56.6601 116.889 57.0455 117.054C57.4309 117.219 57.9013 117.299 58.4669 117.299C59.1125 117.299 59.7281 117.244 60.3136 117.134C60.9042 117.024 61.3746 116.914 61.74 116.805V113.424H58.612V110.677C58.9423 110.632 59.3327 110.592 59.7881 110.557C60.2435 110.527 60.719 110.497 61.2095 110.477C61.7049 110.452 62.1804 110.442 62.6358 110.442C63.1363 110.442 63.5867 110.442 63.9871 110.452C64.3875 110.462 64.7528 110.482 65.0831 110.512V120.375H62.4707L62.0002 119.202C61.5448 119.466 60.8992 119.751 60.0684 120.046C59.2376 120.345 58.3367 120.49 57.3608 120.49L57.3508 120.495Z" fill="black"/>
<path d="M74.9058 120.495C74.5274 120.495 74.0885 120.46 73.5991 120.389C73.1097 120.319 72.6405 120.157 72.1865 119.905C71.7374 119.653 71.3641 119.27 71.0715 118.756C70.7789 118.242 70.6326 117.537 70.6326 116.635V106.848C70.6326 106.072 70.7536 105.427 70.9908 104.903C71.2279 104.384 71.5457 103.971 71.9393 103.668C72.3328 103.366 72.7667 103.154 73.246 103.028C73.7202 102.902 74.1894 102.837 74.6435 102.837C75.8291 102.837 76.8785 102.852 77.7866 102.882C78.6947 102.912 79.5121 102.948 80.2436 102.988C80.9701 103.028 81.6361 103.079 82.2365 103.144V106.082H75.6878C75.1984 106.082 74.82 106.203 74.5476 106.44C74.2802 106.677 74.144 107.04 74.144 107.529V110.063L81.0963 110.255V113.027L74.144 113.218V115.637C74.144 116.05 74.2096 116.368 74.3458 116.594C74.482 116.821 74.6637 116.983 74.8907 117.068C75.1228 117.154 75.3599 117.199 75.6172 117.199H82.2365V120.137C81.5402 120.218 80.7683 120.278 79.9258 120.329C79.0782 120.374 78.2255 120.414 77.3628 120.45C76.5001 120.48 75.6828 120.495 74.9058 120.495Z" fill="black"/>
</svg>
