<svg width="84" height="121" viewBox="0 0 84 121" fill="none" xmlns="http://www.w3.org/2000/svg">
<path d="M42.5255 32.0046V31.6714H42.5206L42.814 0L14.8137 43.157L13.9681 44.4653L14.6893 44.5846L41.6998 49.0963L42.1226 49.166L42.6051 49.0317L69.0187 41.5453L42.5255 32.0046ZM29.2342 22.4142L41.3367 32.1787L15.7041 43.2665L29.2342 22.4142ZM41.6998 48.2806L16.0523 43.9977L41.7048 32.905V48.2806H41.6998ZM41.7147 31.4475L29.6769 21.7327L41.9833 2.76571L41.7147 31.4475ZM42.5056 48.2209L42.5255 32.8602L66.3823 41.4558L42.5056 48.2209Z" fill="#3441C0"/>
<path d="M66.3824 41.4558L42.5057 48.2208L42.5256 32.8602L66.3824 41.4558Z" fill="#B7FAF4"/>
<path d="M41.7049 32.9049L41.6999 48.2805L16.0524 43.9976L41.7049 32.9049Z" fill="#C7B1F4"/>
<path d="M41.3367 32.1788L15.7042 43.2665L29.2343 22.4142L41.3367 32.1788Z" fill="#86A8EF"/>
<path d="M41.9833 2.76569L41.7147 31.4475L29.6769 21.7327L41.9833 2.76569Z" fill="#EDCABF"/>
<path d="M70.4861 44.4205L42.2122 53.0559L41.7595 53.1951V54.4039L41.6948 85.8813L58.0752 62.1489L58.2841 61.8405L58.5279 61.4873H58.5229L70.4811 44.4205H70.4861ZM42.5057 83.2897L42.5653 54.19L57.3738 61.746L42.5057 83.2897ZM57.8265 61.0794L43.1722 53.608L68.576 45.8481L57.8265 61.0794Z" fill="#3441C0"/>
<path d="M57.3739 61.746L42.5057 83.2897L42.5654 54.19L57.3739 61.746Z" fill="#EDCABF"/>
<path d="M68.5758 45.8481L57.8264 61.0794L43.1721 53.608L68.5758 45.8481Z" fill="#C7B1F4"/>
<path d="M6.57176 120.485C6.12108 120.485 5.66049 120.475 5.18504 120.45C4.70959 120.425 4.22919 120.385 3.73888 120.33C3.24858 120.275 2.78799 120.21 2.35216 120.141C1.91633 120.071 1.52012 119.986 1.16354 119.896V117.15C1.62908 117.195 2.15901 117.235 2.74836 117.27C3.33772 117.3 3.95184 117.325 4.58578 117.34C5.22466 117.355 5.82887 117.365 6.40337 117.365C6.97787 117.365 7.50285 117.315 7.92877 117.21C8.35469 117.11 8.68652 116.93 8.91929 116.671C9.15206 116.411 9.27092 116.057 9.27092 115.602V114.968C9.27092 114.454 9.11739 114.055 8.81529 113.785C8.51318 113.511 8.0823 113.376 7.52266 113.376H6.05669C4.41243 113.376 3.14952 113.011 2.27292 112.282C1.39631 111.554 0.955528 110.315 0.955528 108.563V107.719C0.955528 106.027 1.43593 104.794 2.40168 104.01C3.36249 103.226 4.73931 102.837 6.52224 102.837C7.16112 102.837 7.7901 102.867 8.41908 102.932C9.04806 102.997 9.65227 103.067 10.2367 103.156C10.8211 103.241 11.3213 103.331 11.7373 103.426V106.172C11.0241 106.127 10.2268 106.077 9.35016 106.032C8.47356 105.987 7.66133 105.962 6.91844 105.962C6.38852 105.962 5.91802 106.012 5.50696 106.117C5.09589 106.217 4.77893 106.411 4.56596 106.691C4.34805 106.971 4.23909 107.37 4.23909 107.889V108.358C4.23909 108.968 4.40748 109.407 4.75416 109.671C5.09589 109.936 5.60106 110.071 6.26966 110.071H7.96839C9.00844 110.071 9.86523 110.261 10.5437 110.645C11.2173 111.029 11.7225 111.559 12.0592 112.228C12.3911 112.902 12.5594 113.665 12.5594 114.529V115.518C12.5594 116.88 12.3069 117.919 11.8017 118.638C11.2965 119.357 10.5982 119.846 9.70675 120.106C8.81529 120.365 7.77029 120.495 6.57672 120.495L6.57176 120.485Z" fill="white"/>
<path d="M24.1582 120.495C23.1662 120.495 22.2365 120.414 21.3744 120.248C20.5123 120.082 19.7592 119.789 19.1152 119.371C18.4712 118.952 17.9726 118.368 17.6246 117.617C17.2767 116.866 17.1001 115.908 17.1001 114.738V102.837H20.7148V114.713C20.7148 115.363 20.8499 115.873 21.1199 116.256C21.39 116.639 21.7795 116.911 22.2937 117.087C22.8078 117.264 23.4311 117.349 24.1633 117.349C24.8956 117.349 25.4929 117.264 26.0071 117.087C26.5212 116.916 26.9107 116.639 27.1808 116.256C27.4509 115.878 27.5859 115.363 27.5859 114.713V102.837H31.2266V114.738C31.2266 115.908 31.05 116.866 30.6917 117.617C30.3333 118.368 29.8347 118.952 29.2011 119.371C28.5675 119.789 27.8196 120.082 26.9679 120.248C26.1161 120.414 25.1813 120.495 24.1737 120.495H24.1582Z" fill="white"/>
<path d="M36.2721 120.495V102.837H43.4432C44.1309 102.837 44.7687 102.918 45.3668 103.085C45.9598 103.253 46.483 103.542 46.9365 103.958C47.39 104.374 47.7438 104.943 48.003 105.678C48.2621 106.409 48.3917 107.348 48.3917 108.495C48.3917 109.306 48.3119 109.997 48.1574 110.57C48.003 111.143 47.7937 111.61 47.5345 111.975C47.2754 112.341 46.9814 112.635 46.6574 112.858C46.3285 113.082 45.9947 113.264 45.6508 113.406L48.885 120.495H45.3468L42.5561 113.954C42.3668 113.954 42.1525 113.954 41.9133 113.944C41.6691 113.934 41.4249 113.934 41.1757 113.934H40.4282C40.179 113.934 39.9498 113.924 39.7505 113.909V120.495H36.282H36.2721ZM39.7405 111.113H42.8352C43.1491 111.113 43.4282 111.072 43.6774 110.991C43.9266 110.91 44.1458 110.773 44.3352 110.575C44.5246 110.377 44.6691 110.108 44.7687 109.773C44.8734 109.438 44.9232 109.012 44.9232 108.484C44.9232 107.992 44.8734 107.581 44.7687 107.256C44.6691 106.932 44.5246 106.678 44.3352 106.495C44.1458 106.313 43.9266 106.186 43.6774 106.115C43.4282 106.044 43.1442 106.008 42.8352 106.008H39.7405V111.113Z" fill="white"/>
<path d="M58.3063 120.495C57.2053 120.495 56.3094 120.285 55.6138 119.871C54.9131 119.456 54.3676 118.862 53.9772 118.088C53.5868 117.314 53.3116 116.385 53.1564 115.306C53.0013 114.228 52.9212 113.019 52.9212 111.691C52.9212 110.363 53.0113 109.054 53.1915 107.956C53.3716 106.862 53.6919 105.933 54.1574 105.174C54.6178 104.415 55.2684 103.836 56.1092 103.436C56.95 103.037 58.0261 102.837 59.3473 102.837C60.1481 102.837 60.8788 102.867 61.5494 102.932C62.215 102.997 62.8456 103.087 63.4462 103.201C64.0418 103.321 64.6373 103.456 65.2329 103.611V106.288C64.9026 106.243 64.4622 106.193 63.9167 106.148C63.3661 106.103 62.7556 106.058 62.0799 106.018C61.4043 105.978 60.7086 105.958 59.9829 105.958C58.997 105.958 58.2463 106.133 57.7358 106.487C57.2253 106.842 56.875 107.436 56.6898 108.27C56.4996 109.109 56.4095 110.253 56.4095 111.711C56.4095 112.839 56.4596 113.763 56.5647 114.482C56.6648 115.202 56.8349 115.771 57.0702 116.185C57.3054 116.6 57.6157 116.889 58.001 117.054C58.3864 117.219 58.8568 117.299 59.4224 117.299C60.068 117.299 60.6836 117.244 61.2691 117.134C61.8597 117.024 62.3301 116.914 62.6955 116.805V113.424H59.5675V110.677C59.8978 110.632 60.2882 110.592 60.7436 110.557C61.1991 110.527 61.6745 110.497 62.165 110.477C62.6605 110.452 63.1359 110.442 63.5913 110.442C64.0918 110.442 64.5423 110.442 64.9426 110.452C65.343 110.462 65.7084 110.482 66.0387 110.512V120.375H63.4262L62.9557 119.202C62.5003 119.466 61.8547 119.751 61.0239 120.046C60.1931 120.345 59.2923 120.49 58.3163 120.49L58.3063 120.495Z" fill="white"/>
<path d="M75.8613 120.495C75.483 120.495 75.044 120.46 74.5546 120.389C74.0653 120.319 73.5961 120.157 73.142 119.905C72.693 119.653 72.3196 119.27 72.027 118.756C71.7344 118.242 71.5881 117.537 71.5881 116.635V106.848C71.5881 106.072 71.7092 105.427 71.9463 104.903C72.1834 104.384 72.5013 103.971 72.8948 103.668C73.2883 103.366 73.7222 103.154 74.2015 103.028C74.6757 102.902 75.1449 102.837 75.599 102.837C76.7846 102.837 77.834 102.852 78.7421 102.882C79.6503 102.912 80.4676 102.948 81.1992 102.988C81.9257 103.028 82.5916 103.079 83.192 103.144V106.082H76.6434C76.154 106.082 75.7756 106.203 75.5031 106.44C75.2357 106.677 75.0995 107.04 75.0995 107.529V110.063L82.0518 110.255V113.027L75.0995 113.218V115.637C75.0995 116.05 75.1651 116.368 75.3013 116.594C75.4376 116.821 75.6192 116.983 75.8462 117.068C76.0783 117.154 76.3154 117.199 76.5727 117.199H83.192V120.137C82.4958 120.218 81.7238 120.278 80.8813 120.329C80.0337 120.374 79.1811 120.414 78.3183 120.45C77.4556 120.48 76.6383 120.495 75.8613 120.495Z" fill="white"/>
</svg>
