<svg width="187" height="272" viewBox="0 0 187 272" fill="none" xmlns="http://www.w3.org/2000/svg">
<path d="M94.3269 72.2862V71.534H94.3157L94.9781 0.0549316L31.7841 97.456L29.8756 100.409L31.5035 100.678L92.4633 110.86L93.4176 111.018L94.5065 110.715L154.119 93.8186L94.3269 72.2862ZM64.3297 50.6415L91.6438 72.6791L33.7937 97.703L64.3297 50.6415ZM92.4633 109.019L34.5795 99.3533L92.4745 74.3182V109.019H92.4633ZM92.497 71.0288L65.3289 49.1035L93.1032 6.29686L92.497 71.0288ZM94.282 108.885L94.3269 74.2172L148.169 93.6165L94.282 108.885Z" fill="black"/>
<path d="M148.169 93.6165L94.2823 108.885L94.3272 74.2172L148.169 93.6165Z" fill="#92EEE5"/>
<path d="M92.4749 74.318L92.4636 109.019L34.5798 99.3531L92.4749 74.318Z" fill="#BE9EFF"/>
<path d="M91.644 72.6792L33.7938 97.7031L64.3299 50.6416L91.644 72.6792Z" fill="#7CACFF"/>
<path d="M93.1032 6.29675L92.497 71.0287L65.3289 49.1034L93.1032 6.29675Z" fill="#FAC3B2"/>
<path d="M157.431 100.307L93.6198 119.797L92.5982 120.111V122.839L92.4522 193.88L129.421 140.319L129.893 139.623L130.443 138.826H130.431L157.42 100.307H157.431ZM94.2821 188.031L94.4168 122.356L127.838 139.409L94.2821 188.031ZM128.86 137.905L95.7865 121.043L153.12 103.529L128.86 137.905Z" fill="black"/>
<path d="M127.838 139.409L94.2823 188.031L94.417 122.356L127.838 139.409Z" fill="#FAC3B2"/>
<path d="M153.12 103.529L128.859 137.905L95.7862 121.043L153.12 103.529Z" fill="#BE9EFF"/>
<path d="M13.1829 271.977C12.1658 271.977 11.1262 271.955 10.0532 271.899C8.98017 271.842 7.89595 271.752 6.78938 271.628C5.68281 271.504 4.6433 271.358 3.65968 271.2C2.67606 271.042 1.78186 270.851 0.977084 270.648V264.451C2.02777 264.552 3.22376 264.642 4.55388 264.721C5.884 264.789 7.27001 264.845 8.70073 264.879C10.1426 264.913 11.5063 264.935 12.8029 264.935C14.0995 264.935 15.2843 264.823 16.2455 264.586C17.2068 264.361 17.9557 263.955 18.481 263.369C19.0064 262.783 19.2746 261.983 19.2746 260.958V259.527C19.2746 258.366 18.9281 257.465 18.2463 256.857C17.5645 256.237 16.592 255.933 15.329 255.933H12.0204C8.30952 255.933 5.45926 255.11 3.48084 253.465C1.50243 251.82 0.507629 249.026 0.507629 245.071V243.167C0.507629 239.347 1.59185 236.564 3.77146 234.795C5.93989 233.026 9.04723 232.147 13.0711 232.147C14.513 232.147 15.9326 232.215 17.3521 232.361C18.7717 232.508 20.1353 232.666 21.4543 232.868C22.7732 233.06 23.9021 233.263 24.841 233.477V239.674C23.2315 239.573 21.4319 239.46 19.4535 239.358C17.4751 239.257 15.642 239.201 13.9653 239.201C12.7693 239.201 11.7075 239.313 10.7797 239.55C9.85201 239.775 9.13665 240.215 8.65602 240.846C8.16421 241.477 7.91831 242.378 7.91831 243.55V244.609C7.91831 245.984 8.29834 246.975 9.08077 247.572C9.85201 248.17 10.9921 248.474 12.5011 248.474H16.335C18.6822 248.474 20.6159 248.902 22.1473 249.769C23.6674 250.637 24.8075 251.831 25.5676 253.341C26.3165 254.862 26.6965 256.586 26.6965 258.535V260.766C26.6965 263.842 26.1264 266.186 24.9863 267.809C23.8462 269.431 22.2702 270.535 20.2583 271.121C18.2463 271.707 15.8879 272 13.1941 272L13.1829 271.977Z" fill="white"/>
<path d="M52.8736 272C50.6348 272 48.5367 271.818 46.591 271.443C44.6452 271.067 42.9456 270.407 41.4922 269.463C40.0387 268.519 38.9135 267.199 38.1281 265.504C37.3428 263.809 36.9443 261.647 36.9443 259.008V232.147H45.1023V258.951C45.1023 260.418 45.4071 261.568 46.0166 262.432C46.6261 263.297 47.5052 263.911 48.6656 264.309C49.826 264.708 51.2326 264.901 52.8853 264.901C54.538 264.901 55.886 264.708 57.0464 264.309C58.2068 263.923 59.0859 263.297 59.6954 262.432C60.3049 261.579 60.6097 260.418 60.6097 258.951V232.147H68.8264V259.008C68.8264 261.647 68.4278 263.809 67.6191 265.504C66.8103 267.199 65.685 268.519 64.255 269.463C62.825 270.407 61.1372 271.067 59.2149 271.443C57.2926 271.818 55.1827 272 52.9088 272H52.8736Z" fill="white"/>
<path d="M80.2135 272V232.147H96.3979C97.95 232.147 99.3896 232.331 100.739 232.708C102.078 233.086 103.259 233.739 104.282 234.678C105.306 235.617 106.104 236.9 106.689 238.56C107.274 240.209 107.566 242.328 107.566 244.916C107.566 246.749 107.386 248.306 107.038 249.6C106.689 250.894 106.217 251.948 105.632 252.772C105.047 253.597 104.383 254.261 103.652 254.765C102.91 255.269 102.156 255.681 101.38 256.002L108.68 272H100.694L94.396 257.238C93.9686 257.238 93.485 257.238 92.9451 257.216C92.394 257.193 91.8429 257.193 91.2805 257.193H89.5935C89.0311 257.193 88.5138 257.17 88.0639 257.135V272H80.236H80.2135ZM88.0414 250.825H95.0258C95.7344 250.825 96.3642 250.734 96.9265 250.551C97.4889 250.367 97.9838 250.058 98.4112 249.611C98.8385 249.165 99.1647 248.558 99.3896 247.802C99.6258 247.046 99.7383 246.084 99.7383 244.893C99.7383 243.782 99.6258 242.855 99.3896 242.122C99.1647 241.389 98.8385 240.816 98.4112 240.404C97.9838 239.992 97.4889 239.706 96.9265 239.545C96.3642 239.385 95.7231 239.305 95.0258 239.305H88.0414V250.825Z" fill="white"/>
<path d="M129.943 272C127.458 272 125.436 271.527 123.866 270.591C122.284 269.656 121.053 268.315 120.172 266.568C119.291 264.821 118.67 262.724 118.32 260.29C117.97 257.855 117.789 255.128 117.789 252.13C117.789 249.132 117.992 246.179 118.399 243.7C118.806 241.231 119.528 239.135 120.579 237.422C121.618 235.709 123.086 234.401 124.984 233.5C126.882 232.598 129.31 232.147 132.292 232.147C134.099 232.147 135.748 232.215 137.262 232.361C138.764 232.508 140.187 232.711 141.543 232.97C142.887 233.241 144.231 233.545 145.575 233.894V239.935C144.83 239.834 143.836 239.721 142.605 239.62C141.362 239.518 139.984 239.417 138.459 239.327C136.934 239.237 135.364 239.191 133.727 239.191C131.501 239.191 129.807 239.586 128.655 240.386C127.503 241.186 126.712 242.528 126.294 244.41C125.865 246.303 125.662 248.884 125.662 252.175C125.662 254.722 125.775 256.807 126.012 258.43C126.238 260.053 126.622 261.338 127.153 262.274C127.684 263.209 128.384 263.863 129.254 264.235C130.123 264.606 131.185 264.787 132.461 264.787C133.919 264.787 135.308 264.663 136.629 264.415C137.962 264.167 139.024 263.919 139.849 263.671V256.041H132.789V249.842C133.534 249.741 134.416 249.65 135.443 249.572C136.471 249.504 137.544 249.436 138.651 249.391C139.769 249.335 140.843 249.312 141.87 249.312C143 249.312 144.016 249.312 144.92 249.335C145.824 249.357 146.648 249.403 147.394 249.47V271.729H141.498L140.436 269.081C139.408 269.678 137.951 270.321 136.076 270.986C134.201 271.662 132.168 271.989 129.965 271.989L129.943 272Z" fill="white"/>
<path d="M169.563 272C168.709 272 167.718 271.92 166.613 271.761C165.509 271.602 164.45 271.238 163.425 270.669C162.412 270.101 161.569 269.236 160.909 268.076C160.248 266.916 159.918 265.324 159.918 263.288V241.201C159.918 239.449 160.191 237.993 160.727 236.81C161.262 235.639 161.979 234.706 162.867 234.024C163.755 233.342 164.735 232.864 165.816 232.58C166.887 232.295 167.946 232.147 168.97 232.147C171.646 232.147 174.015 232.181 176.064 232.25C178.114 232.318 179.958 232.398 181.609 232.489C183.249 232.58 184.752 232.693 186.107 232.841V239.472H171.327C170.223 239.472 169.369 239.745 168.754 240.279C168.151 240.814 167.843 241.633 167.843 242.736V248.457L183.534 248.889V255.144L167.843 255.577V261.036C167.843 261.969 167.991 262.685 168.299 263.197C168.606 263.709 169.016 264.073 169.528 264.266C170.052 264.459 170.587 264.562 171.168 264.562H186.107V271.192C184.536 271.374 182.794 271.511 180.892 271.625C178.979 271.727 177.055 271.818 175.108 271.898C173.161 271.966 171.316 272 169.563 272Z" fill="white"/>
</svg>
