<svg width="186" height="272" viewBox="0 0 186 272" fill="none" xmlns="http://www.w3.org/2000/svg">
<path d="M94.2193 72.2862V71.534H94.208L94.8704 0.0549316L31.6764 97.456L29.7679 100.409L31.3958 100.678L92.3557 110.86L93.3099 111.018L94.3989 110.715L154.012 93.8186L94.2193 72.2862ZM64.2221 50.6415L91.5361 72.6791L33.686 97.703L64.2221 50.6415ZM92.3557 109.019L34.4718 99.3533L92.3669 74.3182V109.019H92.3557ZM92.3893 71.0288L65.2212 49.1035L92.9956 6.29686L92.3893 71.0288ZM94.1743 108.885L94.2193 74.2172L148.062 93.6165L94.1743 108.885Z" fill="black"/>
<path d="M148.062 93.6165L94.1746 108.885L94.2195 74.2172L148.062 93.6165Z" fill="#92EEE5"/>
<path d="M92.3671 74.318L92.3559 109.019L34.472 99.3531L92.3671 74.318Z" fill="#BE9EFF"/>
<path d="M91.5362 72.6792L33.686 97.7031L64.2221 50.6416L91.5362 72.6792Z" fill="#7CACFF"/>
<path d="M92.9954 6.29675L92.3892 71.0287L65.2211 49.1034L92.9954 6.29675Z" fill="#FAC3B2"/>
<path d="M157.323 100.307L93.512 119.797L92.4904 120.111V122.839L92.3445 193.88L129.313 140.319L129.785 139.623L130.335 138.826H130.324L157.312 100.307H157.323ZM94.1744 188.031L94.3091 122.356L127.73 139.409L94.1744 188.031ZM128.752 137.905L95.6787 121.043L153.012 103.529L128.752 137.905Z" fill="black"/>
<path d="M127.731 139.409L94.1746 188.031L94.3093 122.356L127.731 139.409Z" fill="#FAC3B2"/>
<path d="M153.012 103.529L128.752 137.905L95.6785 121.043L153.012 103.529Z" fill="#BE9EFF"/>
<path d="M13.0752 271.977C12.058 271.977 11.0185 271.955 9.94548 271.899C8.87244 271.842 7.78823 271.752 6.68165 271.628C5.57508 271.504 4.53557 271.358 3.55196 271.2C2.56834 271.042 1.67414 270.851 0.869357 270.648V264.451C1.92004 264.552 3.11603 264.642 4.44615 264.721C5.77628 264.789 7.16229 264.845 8.59301 264.879C10.0349 264.913 11.3986 264.935 12.6951 264.935C13.9917 264.935 15.1765 264.823 16.1378 264.586C17.0991 264.361 17.848 263.955 18.3733 263.369C18.8987 262.783 19.1669 261.983 19.1669 260.958V259.527C19.1669 258.366 18.8204 257.465 18.1386 256.857C17.4568 256.237 16.4843 255.933 15.2213 255.933H11.9127C8.20179 255.933 5.35153 255.11 3.37312 253.465C1.3947 251.82 0.399902 249.026 0.399902 245.071V243.167C0.399902 239.347 1.48412 236.564 3.66373 234.795C5.83216 233.026 8.93951 232.147 12.9634 232.147C14.4053 232.147 15.8248 232.215 17.2444 232.361C18.6639 232.508 20.0276 232.666 21.3465 232.868C22.6655 233.06 23.7944 233.263 24.7333 233.477V239.674C23.1237 239.573 21.3242 239.46 19.3458 239.358C17.3673 239.257 15.5342 239.201 13.8576 239.201C12.6616 239.201 11.5998 239.313 10.672 239.55C9.74429 239.775 9.02893 240.215 8.5483 240.846C8.05649 241.477 7.81058 242.378 7.81058 243.55V244.609C7.81058 245.984 8.19062 246.975 8.97304 247.572C9.74429 248.17 10.8844 248.474 12.3934 248.474H16.2272C18.5745 248.474 20.5082 248.902 22.0395 249.769C23.5597 250.637 24.6998 251.831 25.4598 253.341C26.2087 254.862 26.5888 256.586 26.5888 258.535V260.766C26.5888 263.842 26.0187 266.186 24.8786 267.809C23.7385 269.431 22.1625 270.535 20.1505 271.121C18.1386 271.707 15.7801 272 13.0864 272L13.0752 271.977Z" fill="black"/>
<path d="M52.7659 272C50.5271 272 48.429 271.818 46.4832 271.443C44.5375 271.067 42.8379 270.407 41.3844 269.463C39.931 268.519 38.8057 267.199 38.0204 265.504C37.2351 263.809 36.8365 261.647 36.8365 259.008V232.147H44.9946V258.951C44.9946 260.418 45.2994 261.568 45.9089 262.432C46.5184 263.297 47.3975 263.911 48.5579 264.309C49.7183 264.708 51.1249 264.901 52.7776 264.901C54.4303 264.901 55.7783 264.708 56.9387 264.309C58.0991 263.923 58.9782 263.297 59.5877 262.432C60.1972 261.579 60.502 260.418 60.502 258.951V232.147H68.7186V259.008C68.7186 261.647 68.3201 263.809 67.5113 265.504C66.7026 267.199 65.5773 268.519 64.1473 269.463C62.7173 270.407 61.0294 271.067 59.1071 271.443C57.1848 271.818 55.075 272 52.801 272H52.7659Z" fill="black"/>
<path d="M80.1057 272V232.147H96.2901C97.8422 232.147 99.2819 232.331 100.631 232.708C101.97 233.086 103.151 233.739 104.174 234.678C105.198 235.617 105.996 236.9 106.581 238.56C107.166 240.209 107.458 242.328 107.458 244.916C107.458 246.749 107.278 248.306 106.93 249.6C106.581 250.894 106.109 251.948 105.524 252.772C104.939 253.597 104.276 254.261 103.544 254.765C102.802 255.269 102.049 255.681 101.273 256.002L108.572 272H100.587L94.2882 257.238C93.8608 257.238 93.3772 257.238 92.8373 257.216C92.2862 257.193 91.7351 257.193 91.1728 257.193H89.4857C88.9234 257.193 88.406 257.17 87.9561 257.135V272H80.1282H80.1057ZM87.9336 250.825H94.918C95.6266 250.825 96.2564 250.734 96.8188 250.551C97.3811 250.367 97.876 250.058 98.3034 249.611C98.7308 249.165 99.0569 248.558 99.2818 247.802C99.518 247.046 99.6305 246.084 99.6305 244.893C99.6305 243.782 99.518 242.855 99.2818 242.122C99.0569 241.389 98.7308 240.816 98.3034 240.404C97.876 239.992 97.3811 239.706 96.8188 239.545C96.2564 239.385 95.6153 239.305 94.918 239.305H87.9336V250.825Z" fill="black"/>
<path d="M129.835 272C127.35 272 125.328 271.527 123.758 270.591C122.177 269.656 120.945 268.315 120.064 266.568C119.183 264.821 118.562 262.724 118.212 260.29C117.862 257.855 117.681 255.128 117.681 252.13C117.681 249.132 117.884 246.179 118.291 243.7C118.698 241.231 119.421 239.135 120.471 237.422C121.51 235.709 122.979 234.401 124.876 233.5C126.774 232.598 129.202 232.147 132.184 232.147C133.991 232.147 135.641 232.215 137.154 232.361C138.656 232.508 140.08 232.711 141.435 232.97C142.779 233.241 144.123 233.545 145.467 233.894V239.935C144.722 239.834 143.728 239.721 142.497 239.62C141.254 239.518 139.876 239.417 138.351 239.327C136.827 239.237 135.257 239.191 133.619 239.191C131.394 239.191 129.699 239.586 128.547 240.386C127.395 241.186 126.604 242.528 126.186 244.41C125.757 246.303 125.554 248.884 125.554 252.175C125.554 254.722 125.667 256.807 125.904 258.43C126.13 260.053 126.514 261.338 127.045 262.274C127.576 263.209 128.276 263.863 129.146 264.235C130.016 264.606 131.077 264.787 132.354 264.787C133.811 264.787 135.2 264.663 136.522 264.415C137.854 264.167 138.916 263.919 139.741 263.671V256.041H132.681V249.842C133.427 249.741 134.308 249.65 135.336 249.572C136.363 249.504 137.437 249.436 138.543 249.391C139.662 249.335 140.735 249.312 141.763 249.312C142.892 249.312 143.909 249.312 144.812 249.335C145.716 249.357 146.54 249.403 147.286 249.47V271.729H141.39L140.328 269.081C139.3 269.678 137.843 270.321 135.968 270.986C134.093 271.662 132.06 271.989 129.857 271.989L129.835 272Z" fill="black"/>
<path d="M169.455 272C168.601 272 167.61 271.92 166.506 271.761C165.401 271.602 164.342 271.238 163.317 270.669C162.304 270.101 161.461 269.236 160.801 268.076C160.141 266.916 159.81 265.324 159.81 263.288V241.201C159.81 239.449 160.084 237.993 160.619 236.81C161.154 235.639 161.871 234.706 162.76 234.024C163.648 233.342 164.627 232.864 165.709 232.58C166.779 232.295 167.838 232.147 168.863 232.147C171.538 232.147 173.907 232.181 175.956 232.25C178.006 232.318 179.851 232.398 181.502 232.489C183.141 232.58 184.644 232.693 185.999 232.841V239.472H171.22C170.115 239.472 169.261 239.745 168.646 240.279C168.043 240.814 167.735 241.633 167.735 242.736V248.457L183.426 248.889V255.144L167.735 255.577V261.036C167.735 261.969 167.883 262.685 168.191 263.197C168.498 263.709 168.908 264.073 169.421 264.266C169.944 264.459 170.48 264.562 171.06 264.562H185.999V271.192C184.428 271.374 182.686 271.511 180.784 271.625C178.871 271.727 176.947 271.818 175 271.898C173.053 271.966 171.208 272 169.455 272Z" fill="black"/>
</svg>
